<?xml version="1.0"?>
<!-- Generated by SVGo -->
<svg width="300" height="300"
     xmlns="http://www.w3.org/2000/svg"
     xmlns:xlink="http://www.w3.org/1999/xlink">
<rect x="0" y="0" width="300" height="300" fill="#f0f0f0" />
<rect x="25" y="25" width="50" height="50" fill="#d6b682" stroke="#d6b682" />
<rect x="75" y="25" width="50" height="50" fill="#d6b682" stroke="#d6b682" />
<rect x="125" y="25" width="50" height="50" fill="#d6b682" stroke="#d6b682" />
<rect x="175" y="25" width="50" height="50" fill="#d6b682" stroke="#d6b682" />
<rect x="225" y="25" width="50" height="50" fill="#d6b682" stroke="#d6b682" />
<rect x="25" y="75" width="50" height="50" fill="#d6b682" stroke="#d6b682" />
<rect x="225" y="75" width="50" height="50" fill="#d6b682" stroke="#d6b682" />
<rect x="25" y="125" width="50" height="50" fill="#d6b682" stroke="#d6b682" />
<rect x="75" y="125" width="50" height="50" fill="#d6b682" stroke="#d6b682" />
<rect x="175" y="125" width="50" height="50" fill="#d6b682" stroke="#d6b682" />
<rect x="225" y="125" width="50" height="50" fill="#d6b682" stroke="#d6b682" />
<rect x="75" y="175" width="50" height="50" fill="#d6b682" stroke="#d6b682" />
<rect x="125" y="175" width="50" height="50" fill="#d6b682" stroke="#d6b682" />
<rect x="175" y="175" width="50" height="50" fill="#d6b682" stroke="#d6b682" />
<rect x="75" y="225" width="50" height="50" fill="#d6b682" stroke="#d6b682" />
<rect x="175" y="225" width="50" height="50" fill="#d6b682" stroke="#d6b682" />
</svg>
